<svg width="32" height="32" viewBox="0 0 32 32" fill="none" xmlns="http://www.w3.org/2000/svg">
<path fill-rule="evenodd" clip-rule="evenodd" d="M11.2849 3.45265L22.8737 15.0623C22.978 15.1619 23.0608 15.2819 23.1169 15.4148C23.173 15.5478 23.2013 15.6908 23.2001 15.8351C23.2007 15.9826 23.1722 16.1287 23.1162 16.2652C23.0602 16.4017 22.9778 16.5257 22.8737 16.6303C18.6817 20.7199 14.6417 24.6671 10.7537 28.4719C10.5537 28.6591 9.75366 29.1247 9.13606 28.4335C8.51846 27.7407 8.89286 27.1375 9.13606 26.8879L20.4449 15.8351L9.64966 5.02065C9.25606 4.47772 9.28806 3.97692 9.74566 3.51825C10.2043 3.05958 10.7174 3.03665 11.2849 3.45265Z" fill="#989898"/>
</svg>
