<svg width="32" height="32" viewBox="0 0 32 32" fill="none" xmlns="http://www.w3.org/2000/svg">
<path fill-rule="evenodd" clip-rule="evenodd" d="M11.5552 15.8352C15.2352 12.1435 18.832 8.54138 22.3456 5.02884C22.5295 4.83551 22.6321 4.57888 22.6321 4.31204C22.6321 4.04521 22.5295 3.78858 22.3456 3.59524C21.848 3.04164 21.0608 3.08964 20.7024 3.46724C17.0608 7.11844 13.2512 10.9344 9.27359 14.9152C8.95785 15.1744 8.79999 15.4806 8.79999 15.8336C8.79999 16.1867 8.95785 16.5024 9.27359 16.7808L21.2464 28.4704C21.4762 28.6813 21.7792 28.7944 22.091 28.7858C22.4028 28.7771 22.699 28.6474 22.9168 28.424C23.4896 27.8496 23.2688 27.2832 23.0096 27.0144C19.1855 23.2931 15.3668 19.5662 11.5536 15.8336" fill="#989898"/>
</svg>
